<?xml version="1.0" encoding="UTF-8"?>
<svg id="Layer_1" xmlns="http://www.w3.org/2000/svg" viewBox="0 0 1607.93 895.44">
  <defs>
    <style>
      .cls-1 {
        fill: #0079c1;
      }

      .cls-1, .cls-2, .cls-3, .cls-4, .cls-5, .cls-6 {
        stroke-miterlimit: 10;
      }

      .cls-1, .cls-4 {
        stroke: #fff;
      }

      .cls-2, .cls-3, .cls-6 {
        stroke: #012169;
      }

      .cls-2, .cls-4, .cls-5, .cls-6 {
        fill: #012169;
      }

      .cls-3 {
        fill: none;
        stroke-width: 2px;
      }

      .cls-5 {
        stroke: #0079c1;
      }

      .cls-6 {
        stroke-width: .25px;
      }
    </style>
  </defs>
  <polygon class="cls-3" points="1209.48 476.64 1075.05 556.47 1071.81 394.89 1209.48 476.64"/>
  <polygon class="cls-3" points="1573.58 501.01 1443.56 578.23 1312.75 500.78 1442.84 423.36 1573.58 501.01"/>
  <polygon class="cls-3" points="1400.05 405.21 1269.25 483.17 1028.76 341.85 1159.47 264.22 1159.51 264.23 1230.77 305.91 1400.05 405.21"/>
  <polygon class="cls-3" points="1095.29 209.06 963.2 287.68 963.2 130.61 1095.29 209.06"/>
  <polygon class="cls-3" points="740.02 227.79 570.6 328.77 570.6 127.17 740.02 227.79"/>
  <polygon class="cls-2" points="1057.32 403.05 1057.32 659.47 1010.26 659.47 1010.26 430.52 1057 402.85 1057.32 403.05"/>
  <polygon id="Bdown" class="cls-5" points="594.8 356.94 433.45 456.44 3.2 487.36 .51 289.72 594.8 356.94"/>
  <polygon id="bstemD" class="cls-2" points="594.01 646.38 432.01 744.38 1.85 787.2 1.85 588.21 594.01 646.38"/>
  <polygon id="Blow" class="cls-1" points="347.25 793.95 179.88 893.62 1.85 787.6 1.85 588.27 347.25 793.95"/>
  <polygon class="cls-1" points="596.91 645.82 431.93 744.07 .51 487.4 .51 289.14 329.32 485.79 356.83 502.23 596.91 645.82"/>
  <polygon id="Bup" class="cls-1" points="597.84 356.59 433.08 455.93 433.05 455.92 405.49 439.5 .51 198.33 .51 .88 569.6 339.77 597.16 356.19 597.84 356.59"/>
  <polygon class="cls-6" points="980.68 644.68 562.53 600.31 562.53 402.66 980.68 644.68"/>
  <polyline id="Ydown" class="cls-1" points="562.53 893.42 945.72 665.48 980.43 644.53 893.29 592.94 813.96 549.21 562.53 697.27 562.53 893.04"/>
  <polygon id="Yup" class="cls-1" points="977.15 354 563.87 599.31 562.53 600.1 562.53 402.82 563.87 402.03 810.99 255.34 977.15 354"/>
  <polygon id="N" class="cls-1" points="1442.79 599.51 945.72 894.56 945.72 697.27 1276.38 501 1442.79 599.51"/>
  <polygon class="cls-4" points="1606.95 500.76 1476.93 577.97 1346.12 500.53 1476.2 423.11 1606.95 500.76"/>
  <polygon class="cls-4" points="730.61 209.47 561.18 310.45 561.18 108.85 730.61 209.47"/>
  <polygon class="cls-4" points="1222.41 501.52 1087.98 581.35 1084.74 419.77 1222.41 501.52"/>
  <polygon class="cls-4" points="1077.81 186.74 945.72 265.35 945.72 108.28 1077.81 186.74"/>
  <polygon class="cls-4" points="1400.05 378.37 1269.25 456.33 1028.76 315.02 1159.47 237.39 1159.51 237.4 1230.77 279.07 1230.77 279.08 1400.05 378.37"/>
  <polygon class="cls-1" points="1057.32 402.66 1057.32 600.31 991.44 637.95 823.37 541.15 1010.26 430.52 1057 402.85 1057.32 402.66"/>
</svg>